Pusher 2012 HDRiP AC3-2 0 XviD-AXED

IMDB:  
http://www.imdb.com/title/tt1921070/

PLOT INFO:
In London, a drug pusher's life spins out of control over the course of one week.

MEDIAINFO:
General
Complete name                            : Pusher.2012.HDRiP.AC3-2.0.XviD-AXED.avi
Format                                   : AVI
Format/Info                              : Audio Video Interleave
File size                                : 1.35 GiB
Duration                                 : 1h 29mn
Overall bit rate                         : 2 165 Kbps

Video
ID                                       : 0
Format                                   : MPEG-4 Visual
Format profile                           : Advanced Simple@L5
Format settings, BVOP                    : 2
Format settings, QPel                    : No
Format settings, GMC                     : No warppoints
Format settings, Matrix                  : Default (H.263)
Muxing mode                              : Packed bitstream
Codec ID                                 : XVID
Codec ID/Hint                            : XviD
Duration                                 : 1h 29mn
Bit rate                                 : 1 966 Kbps
Width                                    : 720 pixels
Height                                   : 304 pixels
Display aspect ratio                     : 2.35:1
Frame rate                               : 23.976 fps
Color space                              : YUV
Chroma subsampling                       : 4:2:0
Bit depth                                : 8 bits
Scan type                                : Progressive
Compression mode                         : Lossy
Bits/(Pixel*Frame)                       : 0.375
Stream size                              : 1.23 GiB (91%)
Writing library                          : XviD 64

Audio
ID                                       : 1
Format                                   : AC-3
Format/Info                              : Audio Coding 3
Mode extension                           : CM (complete main)
Format settings, Endianness              : Big
Codec ID                                 : 2000
Duration                                 : 1h 29mn
Bit rate mode                            : Constant
Bit rate                                 : 192 Kbps
Channel(s)                               : 2 channels
Channel positions                        : Front: L R
Sampling rate                            : 48.0 KHz
Bit depth                                : 16 bits
Compression mode                         : Lossy
Stream size                              : 123 MiB (9%)
Alignment                                : Aligned on interleaves
Interleave, duration                     : 64 ms (1.53 video frames)
Interleave, preload duration             : 192 ms
Title                                    : pusher


SOURCE: 
720p wmv Digital VOD Rental


NOTES: 
Enjoy this new English remake of the cult classic film before it even hits theatres!

AXED! - The only name to trust for VOD/HDRiP!


Poster:

 
http://i.imgur.com/9PvTx.jpg


Screenshots:

 
http://i.imgur.com/4l0gl.png

 
http://i.imgur.com/iW8ZZ.png

 
http://i.imgur.com/Auwpu.png


ENJOY!